<?xml version="1.0" encoding="UTF-8" standalone="no"?>
<!DOCTYPE svg PUBLIC "-//W3C//DTD SVG 1.1//EN"
 "http://www.w3.org/Graphics/SVG/1.1/DTD/svg11.dtd">
<!-- Generated by graphviz version 2.40.1 (20161225.0304)
 -->
<!-- Title: vexRobot Pages: 1 -->
<svg width="520pt" height="1681pt"
 viewBox="0.00 0.00 520.00 1681.00" xmlns="http://www.w3.org/2000/svg" xmlns:xlink="http://www.w3.org/1999/xlink">
<g id="graph0" class="graph" transform="scale(1 1) rotate(0) translate(4 1677)">
<title>vexRobot</title>
<polygon fill="#ffffff" stroke="transparent" points="-4,4 -4,-1677 516,-1677 516,4 -4,4"/>
<g id="clust1" class="cluster">
<title>cluster_0</title>
<polygon fill="none" stroke="#000000" points="8,-65 8,-1610 504,-1610 504,-65 8,-65"/>
<text text-anchor="middle" x="256" y="-1594.8" font-family="Times,serif" font-size="14.00" fill="#000000">Robot Processing Loop</text>
</g>
<g id="clust2" class="cluster">
<title>cluster_1</title>
<polygon fill="none" stroke="#000000" points="16,-1015 16,-1478 496,-1478 496,-1015 16,-1015"/>
<text text-anchor="middle" x="256" y="-1462.8" font-family="Times,serif" font-size="14.00" fill="#000000">Intake</text>
</g>
<g id="clust3" class="cluster">
<title>cluster_2</title>
<polygon fill="none" stroke="#000000" points="16,-495 16,-958 473,-958 473,-495 16,-495"/>
<text text-anchor="middle" x="244.5" y="-942.8" font-family="Times,serif" font-size="14.00" fill="#000000">Arm</text>
</g>
<g id="clust4" class="cluster">
<title>cluster_3</title>
<polygon fill="none" stroke="#000000" points="46,-176 46,-438 256,-438 256,-176 46,-176"/>
<text text-anchor="middle" x="151" y="-422.8" font-family="Times,serif" font-size="14.00" fill="#000000">Driving (tank)</text>
</g>
<g id="clust5" class="cluster">
<title>cluster_4</title>
<polygon fill="none" stroke="#000000" points="264,-176 264,-438 466,-438 466,-176 264,-176"/>
<text text-anchor="middle" x="365" y="-422.8" font-family="Times,serif" font-size="14.00" fill="#000000">Driving (arcade)</text>
</g>
<!-- StartCode -->
<g id="node1" class="node">
<title>StartCode</title>
<ellipse fill="none" stroke="#000000" cx="218" cy="-1655" rx="46.2923" ry="18"/>
<text text-anchor="middle" x="218" y="-1651.3" font-family="Times,serif" font-size="14.00" fill="#000000">StartCode</text>
</g>
<!-- StartLoop -->
<g id="node2" class="node">
<title>StartLoop</title>
<ellipse fill="none" stroke="#000000" cx="218" cy="-1561" rx="46.2923" ry="18"/>
<text text-anchor="middle" x="218" y="-1557.3" font-family="Times,serif" font-size="14.00" fill="#000000">StartLoop</text>
</g>
<!-- StartCode&#45;&gt;StartLoop -->
<g id="edge1" class="edge">
<title>StartCode&#45;&gt;StartLoop</title>
<path fill="none" stroke="#66cdaa" stroke-dasharray="5,2" d="M218,-1636.8759C218,-1623.3516 218,-1604.6192 218,-1589.1514"/>
<polygon fill="#66cdaa" stroke="#66cdaa" points="221.5001,-1589.0685 218,-1579.0685 214.5001,-1589.0685 221.5001,-1589.0685"/>
</g>
<!-- IntakeEntry -->
<g id="node3" class="node">
<title>IntakeEntry</title>
<ellipse fill="none" stroke="#000000" cx="218" cy="-1429" rx="51.9908" ry="18"/>
<text text-anchor="middle" x="218" y="-1425.3" font-family="Times,serif" font-size="14.00" fill="#000000">IntakeEntry</text>
</g>
<!-- StartLoop&#45;&gt;IntakeEntry -->
<g id="edge2" class="edge">
<title>StartLoop&#45;&gt;IntakeEntry</title>
<path fill="none" stroke="#0000ff" stroke-dasharray="5,2" d="M218,-1542.9227C218,-1520.9282 218,-1483.5282 218,-1457.6093"/>
<polygon fill="#0000ff" stroke="#0000ff" points="221.5001,-1457.2825 218,-1447.2825 214.5001,-1457.2826 221.5001,-1457.2825"/>
</g>
<!-- ActionIntake -->
<g id="node4" class="node">
<title>ActionIntake</title>
<ellipse fill="none" stroke="#000000" cx="81" cy="-1228" rx="56.59" ry="18"/>
<text text-anchor="middle" x="81" y="-1224.3" font-family="Times,serif" font-size="14.00" fill="#000000">ActionIntake</text>
</g>
<!-- IntakeEntry&#45;&gt;ActionIntake -->
<g id="edge3" class="edge">
<title>IntakeEntry&#45;&gt;ActionIntake</title>
<path fill="none" stroke="#ff0000" d="M174.686,-1419.0109C137.2101,-1409.0716 89,-1392.5778 89,-1373.5 89,-1373.5 89,-1373.5 89,-1283.5 89,-1274.6411 87.9891,-1265.0675 86.6861,-1256.4067"/>
<polygon fill="#ff0000" stroke="#ff0000" points="90.1136,-1255.6835 85,-1246.4044 83.211,-1256.8471 90.1136,-1255.6835"/>
<text text-anchor="middle" x="131.5" y="-1324.8" font-family="Times,serif" font-size="14.00" fill="#000000">Btn 5U pressed</text>
</g>
<!-- ActionOuttake -->
<g id="node5" class="node">
<title>ActionOuttake</title>
<ellipse fill="none" stroke="#000000" cx="218" cy="-1228" rx="62.2891" ry="18"/>
<text text-anchor="middle" x="218" y="-1224.3" font-family="Times,serif" font-size="14.00" fill="#000000">ActionOuttake</text>
</g>
<!-- IntakeEntry&#45;&gt;ActionOuttake -->
<g id="edge4" class="edge">
<title>IntakeEntry&#45;&gt;ActionOuttake</title>
<path fill="none" stroke="#a020f0" d="M218,-1410.5C218,-1399.7083 218,-1385.8333 218,-1373.5 218,-1373.5 218,-1373.5 218,-1283.5 218,-1274.7318 218,-1265.1843 218,-1256.5196"/>
<polygon fill="#a020f0" stroke="#a020f0" points="221.5001,-1256.5 218,-1246.5 214.5001,-1256.5 221.5001,-1256.5"/>
<text text-anchor="middle" x="260.5" y="-1324.8" font-family="Times,serif" font-size="14.00" fill="#000000">Btn 5D pressed</text>
</g>
<!-- ActionStopIntakeMotor -->
<g id="node6" class="node">
<title>ActionStopIntakeMotor</title>
<ellipse fill="none" stroke="#000000" cx="393" cy="-1228" rx="94.7833" ry="18"/>
<text text-anchor="middle" x="393" y="-1224.3" font-family="Times,serif" font-size="14.00" fill="#000000">ActionStopIntakeMotor</text>
</g>
<!-- IntakeEntry&#45;&gt;ActionStopIntakeMotor -->
<g id="edge5" class="edge">
<title>IntakeEntry&#45;&gt;ActionStopIntakeMotor</title>
<path fill="none" stroke="#00ff00" d="M261.9541,-1419.2748C300.353,-1409.468 350,-1393.015 350,-1373.5 350,-1373.5 350,-1373.5 350,-1283.5 350,-1272.1147 355.7245,-1261.649 362.9962,-1252.9476"/>
<polygon fill="#00ff00" stroke="#00ff00" points="365.7108,-1255.1692 369.9894,-1245.4767 360.6003,-1250.3855 365.7108,-1255.1692"/>
<text text-anchor="middle" x="413.5" y="-1324.8" font-family="Times,serif" font-size="14.00" fill="#000000">Neither Button Pressed</text>
</g>
<!-- IntakeExit -->
<g id="node7" class="node">
<title>IntakeExit</title>
<ellipse fill="none" stroke="#000000" cx="218" cy="-1041" rx="47.3916" ry="18"/>
<text text-anchor="middle" x="218" y="-1037.3" font-family="Times,serif" font-size="14.00" fill="#000000">IntakeExit</text>
</g>
<!-- ActionIntake&#45;&gt;IntakeExit -->
<g id="edge6" class="edge">
<title>ActionIntake&#45;&gt;IntakeExit</title>
<path fill="none" stroke="#ff0000" d="M111.3589,-1212.7336C125.3921,-1203.3431 139,-1189.7817 139,-1172.5 139,-1172.5 139,-1172.5 139,-1096.5 139,-1077.9732 153.7271,-1065.0985 170.4641,-1056.449"/>
<polygon fill="#ff0000" stroke="#ff0000" points="172.2949,-1059.4577 179.8884,-1052.0693 169.3448,-1053.1097 172.2949,-1059.4577"/>
</g>
<!-- ActionOuttake&#45;&gt;IntakeExit -->
<g id="edge7" class="edge">
<title>ActionOuttake&#45;&gt;IntakeExit</title>
<path fill="none" stroke="#a020f0" d="M218,-1209.5C218,-1198.7083 218,-1184.8333 218,-1172.5 218,-1172.5 218,-1172.5 218,-1096.5 218,-1087.7318 218,-1078.1843 218,-1069.5196"/>
<polygon fill="#a020f0" stroke="#a020f0" points="221.5001,-1069.5 218,-1059.5 214.5001,-1069.5 221.5001,-1069.5"/>
</g>
<!-- ActionStopIntakeMotor&#45;&gt;IntakeExit -->
<g id="edge8" class="edge">
<title>ActionStopIntakeMotor&#45;&gt;IntakeExit</title>
<path fill="none" stroke="#00ff00" d="M345.8277,-1212.2739C329.4012,-1203.5997 315,-1190.7818 315,-1172.5 315,-1172.5 315,-1172.5 315,-1096.5 315,-1073.157 293.5754,-1059.4966 270.864,-1051.5736"/>
<polygon fill="#00ff00" stroke="#00ff00" points="271.6996,-1048.1677 261.1105,-1048.5178 269.6067,-1054.8475 271.6996,-1048.1677"/>
</g>
<!-- ArmEntry -->
<g id="node8" class="node">
<title>ArmEntry</title>
<ellipse fill="none" stroke="#000000" cx="219" cy="-909" rx="46.5926" ry="18"/>
<text text-anchor="middle" x="219" y="-905.3" font-family="Times,serif" font-size="14.00" fill="#000000">ArmEntry</text>
</g>
<!-- IntakeExit&#45;&gt;ArmEntry -->
<g id="edge9" class="edge">
<title>IntakeExit&#45;&gt;ArmEntry</title>
<path fill="none" stroke="#0000ff" stroke-dasharray="5,2" d="M218.1369,-1022.9227C218.3036,-1000.9282 218.5869,-963.5282 218.7833,-937.6093"/>
<polygon fill="#0000ff" stroke="#0000ff" points="222.2855,-937.3088 218.8615,-927.2825 215.2857,-937.2557 222.2855,-937.3088"/>
</g>
<!-- ActionArmUp -->
<g id="node9" class="node">
<title>ActionArmUp</title>
<ellipse fill="none" stroke="#000000" cx="86" cy="-708" rx="61.99" ry="18"/>
<text text-anchor="middle" x="86" y="-704.3" font-family="Times,serif" font-size="14.00" fill="#000000">ActionArmUp</text>
</g>
<!-- ArmEntry&#45;&gt;ActionArmUp -->
<g id="edge10" class="edge">
<title>ArmEntry&#45;&gt;ActionArmUp</title>
<path fill="none" stroke="#ff0000" d="M179.1055,-899.3589C142.5234,-889.3204 94,-872.4361 94,-853.5 94,-853.5 94,-853.5 94,-763.5 94,-754.6411 92.9891,-745.0675 91.6861,-736.4067"/>
<polygon fill="#ff0000" stroke="#ff0000" points="95.1136,-735.6835 90,-726.4044 88.211,-736.8471 95.1136,-735.6835"/>
<text text-anchor="middle" x="134.5" y="-804.8" font-family="Times,serif" font-size="14.00" fill="#000000">Btn6U pressed</text>
</g>
<!-- ActionArmDown -->
<g id="node10" class="node">
<title>ActionArmDown</title>
<ellipse fill="none" stroke="#000000" cx="239" cy="-708" rx="72.5877" ry="18"/>
<text text-anchor="middle" x="239" y="-704.3" font-family="Times,serif" font-size="14.00" fill="#000000">ActionArmDown</text>
</g>
<!-- ArmEntry&#45;&gt;ActionArmDown -->
<g id="edge11" class="edge">
<title>ArmEntry&#45;&gt;ActionArmDown</title>
<path fill="none" stroke="#a020f0" d="M219,-890.5C219,-879.7083 219,-865.8333 219,-853.5 219,-853.5 219,-853.5 219,-763.5 219,-753.975 221.6395,-744.046 225.0007,-735.2635"/>
<polygon fill="#a020f0" stroke="#a020f0" points="228.2835,-736.4883 229,-725.9177 221.848,-733.7343 228.2835,-736.4883"/>
<text text-anchor="middle" x="259.5" y="-804.8" font-family="Times,serif" font-size="14.00" fill="#000000">Btn6D pressed</text>
</g>
<!-- ActionArmStop -->
<g id="node11" class="node">
<title>ActionArmStop</title>
<ellipse fill="none" stroke="#000000" cx="397" cy="-708" rx="67.6881" ry="18"/>
<text text-anchor="middle" x="397" y="-704.3" font-family="Times,serif" font-size="14.00" fill="#000000">ActionArmStop</text>
</g>
<!-- ArmEntry&#45;&gt;ActionArmStop -->
<g id="edge12" class="edge">
<title>ArmEntry&#45;&gt;ActionArmStop</title>
<path fill="none" stroke="#00ff00" d="M257.6376,-898.69C292.0514,-888.3341 337,-871.3848 337,-853.5 337,-853.5 337,-853.5 337,-763.5 337,-749.9311 345.3717,-738.7553 355.8609,-730.078"/>
<polygon fill="#00ff00" stroke="#00ff00" points="358.2227,-732.685 364.1912,-723.9312 354.0665,-727.0524 358.2227,-732.685"/>
<text text-anchor="middle" x="400.5" y="-804.8" font-family="Times,serif" font-size="14.00" fill="#000000">Neither Button Pressed</text>
</g>
<!-- ArmExit -->
<g id="node12" class="node">
<title>ArmExit</title>
<ellipse fill="none" stroke="#000000" cx="239" cy="-521" rx="42.4939" ry="18"/>
<text text-anchor="middle" x="239" y="-517.3" font-family="Times,serif" font-size="14.00" fill="#000000">ArmExit</text>
</g>
<!-- ActionArmUp&#45;&gt;ArmExit -->
<g id="edge13" class="edge">
<title>ActionArmUp&#45;&gt;ArmExit</title>
<path fill="none" stroke="#ff0000" d="M121.7043,-693.0888C137.2553,-684.0046 152,-670.6151 152,-652.5 152,-652.5 152,-652.5 152,-576.5 152,-554.7491 171.5669,-541.1463 192.1417,-532.8552"/>
<polygon fill="#ff0000" stroke="#ff0000" points="193.4017,-536.1212 201.5993,-529.4093 191.0053,-529.5442 193.4017,-536.1212"/>
</g>
<!-- ActionArmDown&#45;&gt;ArmExit -->
<g id="edge14" class="edge">
<title>ActionArmDown&#45;&gt;ArmExit</title>
<path fill="none" stroke="#a020f0" d="M239,-689.5C239,-678.7083 239,-664.8333 239,-652.5 239,-652.5 239,-652.5 239,-576.5 239,-567.7318 239,-558.1843 239,-549.5196"/>
<polygon fill="#a020f0" stroke="#a020f0" points="242.5001,-549.5 239,-539.5 235.5001,-549.5 242.5001,-549.5"/>
</g>
<!-- ActionArmStop&#45;&gt;ArmExit -->
<g id="edge15" class="edge">
<title>ActionArmStop&#45;&gt;ArmExit</title>
<path fill="none" stroke="#00ff00" d="M358.8673,-693.0461C342.9095,-684.0731 328,-670.7944 328,-652.5 328,-652.5 328,-652.5 328,-576.5 328,-554.3135 307.8401,-540.6742 286.7099,-532.4717"/>
<polygon fill="#00ff00" stroke="#00ff00" points="287.597,-529.0741 277.0022,-529.0744 285.2848,-535.6812 287.597,-529.0741"/>
</g>
<!-- TankProcessLeftMotor -->
<g id="node13" class="node">
<title>TankProcessLeftMotor</title>
<ellipse fill="none" stroke="#000000" cx="153" cy="-389" rx="92.8835" ry="18"/>
<text text-anchor="middle" x="153" y="-385.3" font-family="Times,serif" font-size="14.00" fill="#000000">TankProcessLeftMotor</text>
</g>
<!-- ArmExit&#45;&gt;TankProcessLeftMotor -->
<g id="edge16" class="edge">
<title>ArmExit&#45;&gt;TankProcessLeftMotor</title>
<path fill="none" stroke="#0000ff" stroke-dasharray="5,2" d="M227.5799,-503.4714C212.9477,-481.0128 187.4427,-441.8656 170.3906,-415.6925"/>
<polygon fill="#0000ff" stroke="#0000ff" points="173.1346,-413.4925 164.7432,-407.0245 167.2695,-417.3137 173.1346,-413.4925"/>
</g>
<!-- ArcProcessLeftMotor -->
<g id="node14" class="node">
<title>ArcProcessLeftMotor</title>
<ellipse fill="none" stroke="#000000" cx="362" cy="-389" rx="87.9851" ry="18"/>
<text text-anchor="middle" x="362" y="-385.3" font-family="Times,serif" font-size="14.00" fill="#000000">ArcProcessLeftMotor</text>
</g>
<!-- ArmExit&#45;&gt;ArcProcessLeftMotor -->
<g id="edge17" class="edge">
<title>ArmExit&#45;&gt;ArcProcessLeftMotor</title>
<path fill="none" stroke="#0000ff" stroke-dasharray="5,2" d="M254.8283,-504.0135C276.0878,-481.1985 314.0283,-440.4819 338.593,-414.1197"/>
<polygon fill="#0000ff" stroke="#0000ff" points="341.191,-416.4657 345.4476,-406.7635 336.0697,-411.6936 341.191,-416.4657"/>
</g>
<!-- TankProcessRightMotor -->
<g id="node15" class="node">
<title>TankProcessRightMotor</title>
<ellipse fill="none" stroke="#000000" cx="151" cy="-202" rx="97.4827" ry="18"/>
<text text-anchor="middle" x="151" y="-198.3" font-family="Times,serif" font-size="14.00" fill="#000000">TankProcessRightMotor</text>
</g>
<!-- TankProcessLeftMotor&#45;&gt;TankProcessRightMotor -->
<g id="edge18" class="edge">
<title>TankProcessLeftMotor&#45;&gt;TankProcessRightMotor</title>
<path fill="none" stroke="#000000" d="M152.5,-370.5015C152.25,-359.7103 152,-345.8353 152,-333.5 152,-333.5 152,-333.5 152,-257.5 152,-248.7303 151.8736,-239.1825 151.7108,-230.5178"/>
<polygon fill="#000000" stroke="#000000" points="155.2096,-230.4226 151.5,-220.4985 148.2112,-230.5699 155.2096,-230.4226"/>
</g>
<!-- ArcProcessRightMotor -->
<g id="node16" class="node">
<title>ArcProcessRightMotor</title>
<ellipse fill="none" stroke="#000000" cx="365" cy="-202" rx="92.8835" ry="18"/>
<text text-anchor="middle" x="365" y="-198.3" font-family="Times,serif" font-size="14.00" fill="#000000">ArcProcessRightMotor</text>
</g>
<!-- ArcProcessLeftMotor&#45;&gt;ArcProcessRightMotor -->
<g id="edge19" class="edge">
<title>ArcProcessLeftMotor&#45;&gt;ArcProcessRightMotor</title>
<path fill="none" stroke="#000000" d="M362.5,-370.5015C362.75,-359.7103 363,-345.8353 363,-333.5 363,-333.5 363,-333.5 363,-257.5 363,-248.7261 363.2527,-239.177 363.5785,-230.5125"/>
<polygon fill="#000000" stroke="#000000" points="367.0764,-230.6323 364,-220.494 360.0826,-230.338 367.0764,-230.6323"/>
</g>
<!-- EndLoop -->
<g id="node17" class="node">
<title>EndLoop</title>
<ellipse fill="none" stroke="#000000" cx="257" cy="-91" rx="43.5923" ry="18"/>
<text text-anchor="middle" x="257" y="-87.3" font-family="Times,serif" font-size="14.00" fill="#000000">EndLoop</text>
</g>
<!-- TankProcessRightMotor&#45;&gt;EndLoop -->
<g id="edge20" class="edge">
<title>TankProcessRightMotor&#45;&gt;EndLoop</title>
<path fill="none" stroke="#0000ff" stroke-dasharray="5,2" d="M168.0307,-184.1659C185.7783,-165.5812 213.7142,-136.3275 233.5432,-115.5632"/>
<polygon fill="#0000ff" stroke="#0000ff" points="236.3327,-117.71 240.7078,-108.0607 231.2702,-112.8756 236.3327,-117.71"/>
</g>
<!-- ArcProcessRightMotor&#45;&gt;EndLoop -->
<g id="edge21" class="edge">
<title>ArcProcessRightMotor&#45;&gt;EndLoop</title>
<path fill="none" stroke="#0000ff" stroke-dasharray="5,2" d="M347.6479,-184.1659C329.3797,-165.3902 300.5162,-135.725 280.279,-114.9256"/>
<polygon fill="#0000ff" stroke="#0000ff" points="282.7312,-112.4269 273.249,-107.7004 277.7141,-117.3085 282.7312,-112.4269"/>
</g>
<!-- EndCode -->
<g id="node18" class="node">
<title>EndCode</title>
<ellipse fill="none" stroke="#000000" cx="257" cy="-18" rx="43.5923" ry="18"/>
<text text-anchor="middle" x="257" y="-14.3" font-family="Times,serif" font-size="14.00" fill="#000000">EndCode</text>
</g>
<!-- EndLoop&#45;&gt;EndCode -->
<g id="edge22" class="edge">
<title>EndLoop&#45;&gt;EndCode</title>
<path fill="none" stroke="#66cdaa" stroke-dasharray="5,2" d="M257,-72.9551C257,-64.8828 257,-55.1764 257,-46.1817"/>
<polygon fill="#66cdaa" stroke="#66cdaa" points="260.5001,-46.0903 257,-36.0904 253.5001,-46.0904 260.5001,-46.0903"/>
</g>
</g>
</svg>
